<?xml version="1.0" encoding="UTF-8" ?>
<!-- Sure Cuts A Lot -->
<!DOCTYPE svg PUBLIC "-//W3C//DTD SVG 1.1//EN" "http://www.w3.org/Graphics/SVG/1.1/DTD/svg11.dtd">
<svg version="1.1" xmlns="http://www.w3.org/2000/svg" xmlns:xlink="http://www.w3.org/1999/xlink" xmlns:scal="http://www.craftedge.com/namespaces/surecutsalot" scal:dpi="72" x="0px" y="0px" width="1080px" height="1440px" viewbox="0 0 1080 1440" xml:space="preserve">
<path id="alien.svg" style="fill:#000000;stroke:#000000;" d="M 455.759 138.072 C 377.952 149.115 329.467 194.957 307.576 278.181 C 289.071 348.527 297.812 420.65 332.854 486.74 C 359.381 536.774 404.432 593.231 434.133 613.667 C 454.169 627.453 466.396 631.56 484.86 630.705 C 509.237 629.578 522.7 622.422 547.444 597.439 C 577.596 566.994 621.128 507.761 637.364 475.092 C 654.539 440.53 658.443 417.849 658.092 354.638 C 657.682 280.615 650.465 247.525 626.906 211.639 C 604.649 177.736 564.643 150.238 524.868 141.503 C 505.124 137.167 473.283 135.588 455.759 138.072 zM 367.996 402.38 C 400.75 414.96 432.704 443.971 447.977 474.994 C 456.104 491.501 466.06 519.704 463.87 520.011 C 457.382 520.921 442.281 518.864 428.682 515.213 C 378.219 501.671 338.804 464.104 327.181 418.471 C 325.36 411.322 323.87 402.402 323.87 398.648 L 323.87 391.824 L 337.502 393.863 C 345 394.984 358.72 398.816 367.996 402.38 zM 639.091 415.605 C 631.337 446.052 614.982 471.114 591.458 488.596 C 576.946 499.381 553.143 511.311 538.15 515.313 C 525.291 518.746 500.531 521.547 500.531 519.569 C 500.531 514.624 513.8 481.683 521.082 468.547 C 542.272 430.325 588.178 398.733 630.053 393.555 C 640.423 392.273 641.252 392.517 641.889 397.049 C 642.266 399.73 641.006 408.079 639.091 415.605 z"/>

</svg>